<?xml version="1.0" standalone="no"?>
<!DOCTYPE svg PUBLIC "-//W3C//DTD SVG 20010904//EN"
 "http://www.w3.org/TR/2001/REC-SVG-20010904/DTD/svg10.dtd">
<svg version="1.0" xmlns="http://www.w3.org/2000/svg"
 width="2400.000000pt" height="640.000000pt" viewBox="0 0 2400.000000 640.000000"
 preserveAspectRatio="xMidYMid meet">
<g transform="translate(0.000000,640.000000) scale(0.100000,-0.100000)"
fill="#000000" stroke="none">
<path d="M5186 4763 c-4 -5 -679 -10 -1499 -13 -1356 -5 -1494 -6 -1517 -21
-14 -9 -39 -19 -57 -22 -109 -20 -293 -141 -397 -261 -86 -99 -176 -242 -176
-280 0 -7 -6 -19 -14 -25 -7 -6 -17 -30 -20 -54 -4 -23 -14 -53 -22 -65 -24
-36 -24 -351 -1 -406 10 -21 17 -47 17 -58 0 -24 54 -140 91 -196 16 -24 29
-47 29 -52 0 -8 26 -38 115 -134 17 -18 48 -46 70 -62 21 -16 47 -37 57 -46
25 -25 222 -117 272 -128 22 -5 59 -15 81 -24 22 -8 61 -15 87 -16 26 0 59 -6
75 -12 21 -10 254 -14 1003 -18 l975 -5 58 -27 c31 -15 57 -32 57 -38 0 -5 6
-10 14 -10 17 0 90 -75 128 -131 144 -215 -3 -504 -286 -565 -48 -11 -297 -13
-1160 -14 -1108 0 -1200 -3 -1253 -36 -12 -8 -29 -14 -36 -14 -23 0 -128 -51
-182 -88 -85 -59 -198 -185 -295 -327 -14 -20 -33 -46 -43 -57 -10 -10 -17
-28 -15 -39 3 -20 9 -20 1558 -19 855 1 1575 5 1600 10 107 20 259 71 291 97
8 7 24 13 34 13 38 0 184 111 286 219 108 112 171 213 200 321 7 25 17 51 23
59 7 9 12 93 14 217 3 196 3 206 -22 276 -31 88 -69 181 -77 188 -4 3 -15 23
-27 45 -11 22 -31 52 -44 66 -14 15 -35 43 -47 63 -22 35 -189 177 -233 196
-13 6 -41 22 -63 35 -22 14 -51 30 -65 36 -14 6 -38 17 -55 25 -16 7 -43 16
-60 20 -16 4 -42 13 -57 20 -85 43 -188 48 -1198 53 l-965 6 -50 24 c-80 39
-195 136 -195 166 0 6 -10 29 -22 50 -28 51 -32 187 -7 225 9 14 19 38 23 53
9 37 127 155 163 163 15 3 39 14 53 23 23 14 129 16 1110 21 770 4 1091 8
1105 16 11 6 46 14 79 18 32 4 71 12 85 20 14 7 49 23 76 36 92 43 189 114
277 204 49 50 88 93 88 96 0 4 22 35 50 71 51 66 59 86 38 107 -13 13 -110 17
-122 5z"/>
<path d="M13297 4755 c-29 -28 -27 -33 65 -134 7 -8 18 -22 23 -32 6 -9 24
-34 42 -55 68 -83 120 -151 142 -186 12 -21 28 -41 35 -45 6 -5 25 -28 41 -53
17 -25 77 -107 135 -183 58 -76 114 -151 125 -167 35 -49 317 -428 383 -512
34 -45 62 -84 62 -87 0 -3 17 -25 38 -49 20 -23 55 -67 77 -98 22 -30 58 -80
80 -110 22 -30 58 -79 80 -110 22 -31 63 -83 90 -116 28 -33 55 -68 60 -77 6
-9 26 -36 45 -61 33 -41 58 -76 85 -118 13 -20 98 -133 228 -302 23 -30 56
-75 72 -100 16 -25 40 -56 52 -70 13 -14 41 -51 63 -83 21 -32 51 -73 65 -90
74 -93 154 -197 180 -237 17 -25 35 -49 41 -55 6 -5 25 -33 43 -62 17 -28 39
-54 47 -57 9 -3 147 -6 308 -6 l293 0 33 53 c35 53 90 130 113 157 7 8 26 35
42 60 17 24 38 52 48 62 9 10 17 22 17 27 0 6 68 100 128 176 4 6 23 33 42 60
19 28 40 55 46 60 5 6 23 30 39 55 17 25 34 48 39 52 6 3 17 20 25 36 15 27
128 182 253 346 29 39 56 78 60 88 4 10 31 49 60 86 29 37 67 87 83 112 17 25
33 48 38 51 4 3 24 30 45 61 51 77 129 184 172 238 19 25 49 65 65 90 16 25
35 52 42 60 17 19 58 75 103 141 19 28 60 83 90 122 30 40 71 95 89 122 19 28
37 52 41 55 3 3 19 25 35 50 17 24 65 92 107 150 42 58 94 129 115 159 21 29
45 61 53 70 8 9 29 36 45 61 17 25 47 68 68 95 21 28 68 91 105 140 37 50 73
95 80 101 8 5 12 21 10 35 l-3 24 -400 -3 c-436 -2 -430 -2 -439 -37 -3 -13
-12 -30 -19 -37 -12 -13 -19 -22 -83 -115 -20 -29 -40 -53 -45 -53 -5 0 -9 -5
-9 -11 0 -6 -17 -32 -38 -58 -21 -25 -50 -64 -65 -86 -16 -22 -44 -60 -63 -85
-19 -25 -37 -52 -41 -60 -3 -8 -12 -22 -19 -30 -32 -36 -104 -130 -104 -136 0
-3 -27 -38 -60 -78 -33 -40 -60 -78 -60 -84 0 -6 -6 -15 -12 -19 -7 -4 -29
-30 -48 -58 -19 -27 -40 -56 -47 -63 -7 -7 -13 -16 -13 -20 0 -4 -13 -21 -28
-37 -16 -17 -48 -57 -71 -90 -59 -85 -246 -343 -268 -370 -13 -16 -189 -255
-230 -313 -21 -29 -65 -88 -98 -132 -96 -126 -200 -270 -247 -341 -24 -36 -49
-74 -56 -85 -7 -10 -19 -33 -27 -51 -27 -58 -76 -68 -95 -18 -6 14 -40 72 -77
128 -38 56 -70 107 -73 112 -6 13 -221 304 -280 380 -48 62 -122 160 -154 204
-17 23 -33 41 -38 41 -4 0 -8 6 -8 14 0 8 -20 39 -45 69 -25 31 -45 60 -45 65
0 4 -11 19 -24 31 -13 12 -41 48 -62 79 -21 31 -44 62 -49 67 -6 6 -24 30 -41
55 -16 24 -35 51 -42 60 -48 57 -130 168 -135 183 -4 9 -10 17 -15 17 -5 0
-24 24 -42 53 -19 28 -39 57 -46 62 -14 12 -202 262 -215 287 -5 9 -21 30 -35
45 -15 15 -37 44 -50 63 -13 19 -42 60 -64 90 -23 30 -48 66 -57 80 -10 14
-38 52 -63 85 -25 33 -62 85 -82 116 -20 30 -43 60 -50 66 -8 6 -156 13 -398
17 -212 3 -397 9 -411 12 -17 4 -32 0 -42 -11z"/>
<path d="M7893 4752 c-16 -2 -25 -13 -32 -37 -5 -19 -23 -55 -40 -80 -17 -25
-31 -49 -31 -52 0 -9 -93 -147 -104 -155 -5 -3 -17 -20 -25 -37 -22 -42 -65
-113 -125 -206 -59 -90 -55 -84 -153 -230 -40 -59 -73 -110 -73 -115 0 -4 -17
-29 -37 -56 -21 -27 -42 -57 -48 -66 -5 -9 -50 -76 -100 -148 -49 -72 -95
-139 -100 -148 -25 -41 -51 -78 -67 -94 -10 -10 -18 -24 -18 -32 0 -7 -6 -19
-14 -25 -8 -7 -44 -58 -81 -114 -37 -56 -75 -114 -85 -128 -10 -14 -48 -70
-86 -125 -72 -106 -125 -180 -147 -204 -7 -8 -26 -37 -42 -65 -15 -27 -33 -53
-38 -56 -5 -4 -19 -23 -31 -42 -11 -20 -66 -102 -121 -182 -55 -81 -105 -155
-111 -166 -6 -10 -18 -27 -27 -37 -10 -10 -17 -24 -17 -30 0 -7 -4 -12 -8 -12
-4 0 -32 -37 -62 -83 -30 -45 -60 -86 -67 -90 -7 -4 -13 -14 -13 -21 0 -7 -19
-38 -42 -69 -24 -31 -56 -75 -71 -99 -43 -66 -99 -140 -134 -178 -71 -74 -71
-74 397 -71 428 3 423 2 444 51 10 23 143 228 255 393 25 37 51 78 58 90 7 12
17 29 23 37 32 47 385 585 438 667 61 96 109 170 144 222 10 14 24 38 33 53 8
16 40 64 70 108 30 45 55 83 55 86 0 2 19 35 43 72 55 88 64 101 83 137 9 17
29 46 43 65 15 19 33 48 39 64 7 16 28 52 46 80 32 49 105 171 154 260 13 22
38 74 55 114 23 54 38 74 54 78 24 7 53 -10 53 -30 0 -18 84 -178 133 -254 68
-106 86 -135 101 -168 8 -17 22 -36 30 -44 9 -7 16 -16 16 -21 0 -11 112 -186
139 -218 12 -13 21 -30 21 -38 0 -7 17 -36 38 -63 20 -27 55 -79 77 -115 22
-37 50 -79 63 -95 12 -15 22 -31 22 -34 0 -3 15 -28 33 -54 17 -26 37 -55 42
-64 9 -15 153 -231 179 -269 31 -46 554 -826 576 -859 14 -20 38 -57 54 -81
16 -24 44 -67 62 -95 18 -28 39 -55 46 -61 10 -9 733 -21 836 -14 18 1 15 44
-5 62 -10 8 -29 30 -43 49 -14 18 -51 66 -82 106 -32 41 -58 78 -58 83 0 4 -7
15 -17 22 -9 8 -31 37 -49 64 -72 108 -138 202 -173 245 -20 25 -40 52 -46 61
-17 28 -104 152 -146 209 -22 30 -55 78 -74 105 -19 28 -52 75 -74 105 -22 30
-66 91 -96 135 -64 92 -87 124 -132 182 -18 23 -33 46 -33 52 0 6 -8 19 -17
29 -10 9 -40 51 -68 92 -49 75 -76 112 -160 224 -25 33 -45 64 -45 69 0 6 -7
17 -16 26 -18 18 -88 116 -171 241 -31 47 -67 99 -80 115 -13 17 -27 35 -31
40 -4 6 -47 69 -96 140 -48 72 -107 157 -132 190 -24 33 -55 76 -69 95 -13 19
-40 58 -60 85 -66 93 -201 300 -234 357 -18 32 -37 61 -44 65 -11 7 -509 11
-554 5z"/>
<path d="M11764 4745 c-11 -8 -12 -32 -4 -125 13 -162 13 -2723 0 -2935 -9
-136 -8 -170 2 -177 7 -4 161 -7 341 -5 l328 2 -1 1619 c0 891 -2 1622 -5
1625 -10 10 -648 6 -661 -4z"/>
<path d="M20452 4750 c-298 -5 -301 -6 -302 -52 0 -9 -4 -19 -10 -23 -9 -6
-114 -162 -121 -180 -2 -6 -44 -71 -94 -144 -49 -73 -94 -141 -100 -150 -32
-53 -133 -202 -160 -236 -18 -22 -40 -53 -49 -70 -25 -46 -39 -67 -71 -109
-16 -22 -34 -47 -40 -57 -31 -50 -92 -135 -102 -142 -7 -4 -13 -14 -13 -22 0
-7 -18 -36 -40 -64 -22 -28 -40 -53 -40 -56 0 -4 -11 -21 -25 -39 -14 -18 -25
-38 -25 -44 0 -6 -6 -15 -13 -19 -11 -7 -42 -50 -107 -148 -24 -36 -72 -103
-112 -156 -21 -26 -38 -53 -38 -58 0 -5 -7 -17 -16 -25 -8 -9 -52 -71 -98
-138 -118 -175 -150 -222 -156 -228 -3 -3 -36 -50 -73 -105 -118 -174 -198
-289 -225 -324 -15 -19 -34 -47 -42 -62 -15 -28 -95 -139 -230 -321 -41 -56
-80 -111 -87 -122 -7 -12 -31 -41 -53 -66 -28 -31 -40 -52 -38 -70 l3 -24 420
2 420 3 27 32 c15 18 28 37 28 43 0 6 7 18 16 25 9 7 30 38 48 67 17 30 38 64
46 76 8 13 37 56 64 97 27 41 55 83 62 94 157 231 272 406 281 428 7 15 16 27
22 27 5 0 13 9 16 21 4 11 45 78 91 147 46 70 89 134 94 142 35 53 72 109 87
130 16 24 101 155 148 230 12 19 42 67 67 105 41 63 97 153 123 196 6 9 32 50
59 90 26 41 60 93 75 117 14 23 50 79 79 123 28 45 52 83 52 85 0 1 17 31 38
66 50 83 64 110 104 190 42 86 74 92 111 23 9 -16 24 -43 32 -60 9 -16 27 -48
40 -70 14 -22 30 -51 37 -65 7 -14 27 -46 45 -72 18 -26 33 -51 33 -54 0 -3
36 -60 80 -126 44 -66 80 -122 80 -125 0 -3 11 -18 25 -35 14 -16 25 -36 25
-43 0 -8 6 -18 13 -22 6 -4 24 -26 38 -48 14 -22 44 -69 67 -105 23 -36 51
-76 62 -88 11 -13 20 -28 20 -33 0 -5 17 -33 37 -62 40 -57 38 -54 147 -217
43 -63 104 -153 137 -200 33 -47 62 -91 66 -98 3 -7 28 -46 54 -85 27 -40 84
-124 126 -187 43 -63 82 -119 88 -125 6 -5 24 -30 41 -55 16 -25 32 -49 37
-55 4 -5 53 -79 110 -164 56 -84 119 -176 139 -205 20 -28 51 -74 68 -103 l31
-51 392 -4 c509 -4 485 -10 383 94 -36 37 -76 84 -91 105 -14 21 -42 61 -63
89 -20 29 -54 77 -75 107 -21 30 -44 61 -52 67 -8 7 -15 18 -15 25 0 11 -21
39 -65 86 -8 9 -15 20 -15 26 0 6 -10 23 -22 38 -26 32 -143 200 -245 350 -37
55 -81 118 -98 140 -16 22 -34 47 -40 56 -47 76 -100 149 -107 149 -4 0 -8 6
-8 13 0 8 -19 39 -42 70 -49 63 -96 128 -118 162 -60 91 -154 224 -206 290
-17 22 -34 50 -38 61 -4 12 -15 29 -26 39 -11 10 -20 22 -20 28 0 5 -14 27
-32 49 -17 22 -42 56 -56 76 -14 21 -39 57 -56 81 -17 24 -38 53 -46 66 -80
122 -173 255 -185 265 -8 7 -15 18 -15 25 0 8 -11 26 -24 42 -13 15 -54 73
-91 128 -37 55 -80 116 -94 135 -14 19 -30 42 -36 51 -5 9 -26 41 -46 70 -20
30 -49 77 -65 104 -15 28 -40 65 -56 83 -15 18 -28 42 -28 53 0 21 -37 40 -73
37 -12 -1 -149 -5 -305 -8z"/>
</g>
</svg>
